<svg width="3001" height="2101" viewBox="0 0 3001 2101" fill="none" xmlns="http://www.w3.org/2000/svg">
<g clip-path="url(#clip0_241_81)">
<rect x="-0.25" y="-0.25" width="300.5" height="300.5" stroke="#FF5A00" stroke-width="0.5"/>
<rect x="299.75" y="-0.25" width="300.5" height="300.5" stroke="#FF5A00" stroke-width="0.5"/>
<rect x="599.75" y="-0.25" width="300.5" height="300.5" stroke="#FF5A00" stroke-width="0.5"/>
<rect x="899.75" y="-0.25" width="300.5" height="300.5" stroke="#FF5A00" stroke-width="0.5"/>
<rect x="1199.75" y="-0.25" width="300.5" height="300.5" stroke="#FF5A00" stroke-width="0.5"/>
<rect x="1499.75" y="-0.25" width="300.5" height="300.5" stroke="#FF5A00" stroke-width="0.5"/>
<rect x="1799.75" y="-0.25" width="300.5" height="300.5" stroke="#FF5A00" stroke-width="0.5"/>
<rect x="2099.75" y="-0.25" width="300.5" height="300.5" stroke="#FF5A00" stroke-width="0.5"/>
<rect x="2399.75" y="-0.25" width="300.5" height="300.5" stroke="#FF5A00" stroke-width="0.5"/>
<rect x="2699.75" y="-0.25" width="300.5" height="300.5" stroke="#FF5A00" stroke-width="0.5"/>
<rect x="-0.25" y="299.75" width="300.5" height="300.5" stroke="#FF5A00" stroke-width="0.5"/>
<rect x="299.75" y="299.75" width="300.5" height="300.5" stroke="#FF5A00" stroke-width="0.5"/>
<rect x="599.75" y="299.75" width="300.5" height="300.5" stroke="#FF5A00" stroke-width="0.5"/>
<rect x="899.75" y="299.75" width="300.5" height="300.5" stroke="#FF5A00" stroke-width="0.5"/>
<rect x="1199.75" y="299.75" width="300.5" height="300.5" stroke="#FF5A00" stroke-width="0.5"/>
<rect x="1499.75" y="299.75" width="300.5" height="300.5" stroke="#FF5A00" stroke-width="0.5"/>
<rect x="1799.75" y="299.75" width="300.5" height="300.5" stroke="#FF5A00" stroke-width="0.5"/>
<rect x="2099.75" y="299.75" width="300.5" height="300.5" stroke="#FF5A00" stroke-width="0.5"/>
<rect x="2399.75" y="299.75" width="300.5" height="300.5" stroke="#FF5A00" stroke-width="0.5"/>
<rect x="2699.75" y="299.75" width="300.5" height="300.5" stroke="#FF5A00" stroke-width="0.5"/>
<rect x="-0.25" y="599.75" width="300.5" height="300.5" stroke="#FF5A00" stroke-width="0.5"/>
<rect x="299.75" y="599.75" width="300.5" height="300.5" stroke="#FF5A00" stroke-width="0.5"/>
<rect x="599.75" y="599.75" width="300.5" height="300.5" stroke="#FF5A00" stroke-width="0.5"/>
<rect x="899.75" y="599.75" width="300.5" height="300.5" stroke="#FF5A00" stroke-width="0.5"/>
<rect x="1199.75" y="599.75" width="300.5" height="300.5" stroke="#FF5A00" stroke-width="0.5"/>
<rect x="1499.75" y="599.75" width="300.5" height="300.5" stroke="#FF5A00" stroke-width="0.5"/>
<rect x="1799.75" y="599.75" width="300.5" height="300.5" stroke="#FF5A00" stroke-width="0.5"/>
<rect x="2099.75" y="599.75" width="300.5" height="300.5" stroke="#FF5A00" stroke-width="0.5"/>
<rect x="2399.75" y="599.75" width="300.5" height="300.5" stroke="#FF5A00" stroke-width="0.5"/>
<rect x="2699.75" y="599.75" width="300.5" height="300.5" stroke="#FF5A00" stroke-width="0.5"/>
<rect x="-0.25" y="899.75" width="300.5" height="300.5" stroke="#FF5A00" stroke-width="0.5"/>
<rect x="299.75" y="899.75" width="300.5" height="300.5" stroke="#FF5A00" stroke-width="0.5"/>
<rect x="599.75" y="899.75" width="300.5" height="300.5" stroke="#FF5A00" stroke-width="0.5"/>
<rect x="899.75" y="899.75" width="300.5" height="300.5" stroke="#FF5A00" stroke-width="0.5"/>
<rect x="1199.75" y="899.75" width="300.5" height="300.5" stroke="#FF5A00" stroke-width="0.5"/>
<rect x="1499.75" y="899.75" width="300.5" height="300.5" stroke="#FF5A00" stroke-width="0.5"/>
<rect x="1799.75" y="899.75" width="300.5" height="300.5" stroke="#FF5A00" stroke-width="0.5"/>
<rect x="2099.75" y="899.75" width="300.5" height="300.5" stroke="#FF5A00" stroke-width="0.5"/>
<rect x="2399.75" y="899.75" width="300.5" height="300.5" stroke="#FF5A00" stroke-width="0.5"/>
<rect x="2699.75" y="899.75" width="300.5" height="300.5" stroke="#FF5A00" stroke-width="0.5"/>
<rect x="-0.25" y="1199.75" width="300.5" height="300.5" stroke="#FF5A00" stroke-width="0.5"/>
<rect x="299.75" y="1199.75" width="300.5" height="300.5" stroke="#FF5A00" stroke-width="0.5"/>
<rect x="599.75" y="1199.75" width="300.5" height="300.5" stroke="#FF5A00" stroke-width="0.5"/>
<rect x="899.75" y="1199.75" width="300.5" height="300.5" stroke="#FF5A00" stroke-width="0.5"/>
<rect x="1199.75" y="1199.75" width="300.5" height="300.5" stroke="#FF5A00" stroke-width="0.5"/>
<rect x="1499.75" y="1199.75" width="300.5" height="300.5" stroke="#FF5A00" stroke-width="0.5"/>
<rect x="1799.75" y="1199.75" width="300.5" height="300.5" stroke="#FF5A00" stroke-width="0.5"/>
<rect x="2099.75" y="1199.75" width="300.5" height="300.5" stroke="#FF5A00" stroke-width="0.5"/>
<rect x="2399.75" y="1199.75" width="300.5" height="300.5" stroke="#FF5A00" stroke-width="0.5"/>
<rect x="2699.75" y="1199.75" width="300.5" height="300.5" stroke="#FF5A00" stroke-width="0.5"/>
<rect x="-0.25" y="1499.75" width="300.5" height="300.5" stroke="#FF5A00" stroke-width="0.5"/>
<rect x="299.75" y="1499.75" width="300.5" height="300.5" stroke="#FF5A00" stroke-width="0.5"/>
<rect x="599.75" y="1499.75" width="300.5" height="300.5" stroke="#FF5A00" stroke-width="0.5"/>
<rect x="899.75" y="1499.75" width="300.5" height="300.5" stroke="#FF5A00" stroke-width="0.5"/>
<rect x="1199.75" y="1499.75" width="300.5" height="300.5" stroke="#FF5A00" stroke-width="0.5"/>
<rect x="1499.75" y="1499.75" width="300.5" height="300.5" stroke="#FF5A00" stroke-width="0.5"/>
<rect x="1799.75" y="1499.75" width="300.5" height="300.5" stroke="#FF5A00" stroke-width="0.5"/>
<rect x="2099.75" y="1499.75" width="300.5" height="300.5" stroke="#FF5A00" stroke-width="0.5"/>
<rect x="2399.75" y="1499.75" width="300.5" height="300.5" stroke="#FF5A00" stroke-width="0.5"/>
<rect x="2699.75" y="1499.75" width="300.5" height="300.5" stroke="#FF5A00" stroke-width="0.5"/>
<rect x="-0.25" y="1799.75" width="300.5" height="300.5" stroke="#FF5A00" stroke-width="0.5"/>
<rect x="299.75" y="1799.75" width="300.5" height="300.5" stroke="#FF5A00" stroke-width="0.5"/>
<rect x="599.75" y="1799.75" width="300.5" height="300.5" stroke="#FF5A00" stroke-width="0.5"/>
<rect x="899.75" y="1799.75" width="300.5" height="300.5" stroke="#FF5A00" stroke-width="0.5"/>
<rect x="1199.75" y="1799.75" width="300.5" height="300.5" stroke="#FF5A00" stroke-width="0.5"/>
<rect x="1499.75" y="1799.75" width="300.5" height="300.5" stroke="#FF5A00" stroke-width="0.5"/>
<rect x="1799.75" y="1799.75" width="300.5" height="300.5" stroke="#FF5A00" stroke-width="0.5"/>
<rect x="2099.75" y="1799.75" width="300.5" height="300.5" stroke="#FF5A00" stroke-width="0.5"/>
<rect x="2399.75" y="1799.75" width="300.5" height="300.5" stroke="#FF5A00" stroke-width="0.5"/>
<rect x="2699.75" y="1799.75" width="300.5" height="300.5" stroke="#FF5A00" stroke-width="0.5"/>
</g>
<defs>
<clipPath id="clip0_241_81">
<rect width="3001" height="2101" fill="white"/>
</clipPath>
</defs>
</svg>
