<svg id="svg" version="1.1" xmlns="http://www.w3.org/2000/svg" xmlns:xlink="http://www.w3.org/1999/xlink" width="400" height="400" viewBox="0, 0, 400,400"><g id="svgg"><path id="path0" d="M188.000 16.418 C 183.356 16.687,180.356 16.967,177.400 17.407 C 176.740 17.505,175.480 17.689,174.600 17.816 C 169.959 18.485,165.185 19.405,161.200 20.400 C 160.430 20.592,158.900 20.962,157.800 21.221 C 155.560 21.748,153.399 22.362,152.200 22.810 C 151.760 22.974,150.590 23.330,149.600 23.600 C 147.749 24.105,146.321 24.628,145.105 25.247 C 144.723 25.441,144.136 25.600,143.800 25.600 C 143.464 25.600,142.832 25.780,142.395 26.000 C 141.958 26.220,141.242 26.580,140.805 26.800 C 140.368 27.020,139.736 27.200,139.400 27.200 C 139.064 27.200,138.477 27.360,138.095 27.556 C 137.290 27.969,134.508 29.215,132.200 30.198 C 126.701 32.538,115.697 38.421,111.522 41.254 C 110.269 42.104,109.054 42.800,108.822 42.800 C 108.590 42.800,108.400 42.980,108.400 43.200 C 108.400 43.420,108.222 43.600,108.003 43.600 C 107.785 43.600,106.822 44.185,105.863 44.900 C 104.904 45.615,102.697 47.220,100.959 48.467 C 90.180 56.203,76.073 70.022,68.535 80.229 C 68.059 80.873,67.054 82.217,66.302 83.216 C 63.536 86.887,59.069 93.810,56.441 98.500 C 55.978 99.325,55.211 100.675,54.735 101.500 C 52.469 105.432,47.871 115.399,46.385 119.600 C 45.879 121.030,45.349 122.380,45.207 122.600 C 45.065 122.820,44.357 124.890,43.633 127.200 C 42.910 129.510,42.156 131.713,41.959 132.095 C 41.761 132.477,41.600 133.143,41.600 133.576 C 41.600 134.008,41.439 134.776,41.242 135.281 C 40.661 136.771,39.495 141.396,38.791 145.000 C 35.479 161.974,35.602 157.743,35.601 255.200 C 35.600 341.533,35.732 351.236,37.033 360.800 C 38.878 374.361,43.645 381.235,51.171 381.189 C 54.976 381.165,58.125 378.717,67.873 368.200 C 98.136 335.551,106.263 334.661,126.617 361.767 C 138.170 377.153,143.875 381.521,151.914 381.136 C 158.801 380.806,163.109 377.203,171.997 364.345 C 182.499 349.152,187.398 344.748,195.710 343.031 C 206.638 340.774,215.341 345.858,227.642 361.687 C 239.773 377.297,244.788 381.200,252.715 381.200 C 260.974 381.200,266.817 376.849,279.497 361.255 C 291.997 345.882,296.484 342.526,304.064 342.881 C 311.989 343.252,317.952 348.060,332.983 366.200 C 345.098 380.821,349.303 383.397,355.647 380.083 C 360.387 377.607,362.344 372.793,363.673 360.343 C 364.263 354.805,364.474 170.071,363.897 163.600 C 363.090 154.554,361.882 147.103,360.040 139.800 C 359.818 138.920,359.460 137.480,359.245 136.600 C 356.182 124.087,349.735 108.797,341.972 95.631 C 341.174 94.278,334.698 84.581,333.135 82.400 C 326.825 73.591,315.836 61.979,306.600 54.361 C 302.868 51.283,294.885 45.200,294.578 45.200 C 294.462 45.200,293.980 44.840,293.508 44.400 C 293.036 43.960,292.413 43.600,292.125 43.600 C 291.836 43.600,291.600 43.420,291.600 43.200 C 291.600 42.980,291.410 42.800,291.178 42.800 C 290.946 42.800,289.731 42.104,288.478 41.254 C 284.219 38.365,272.111 31.913,267.400 30.022 C 266.278 29.572,262.739 27.984,261.905 27.556 C 261.523 27.360,260.936 27.200,260.600 27.200 C 260.264 27.200,259.677 27.041,259.295 26.847 C 258.122 26.250,256.674 25.676,255.000 25.145 C 254.120 24.865,253.229 24.493,253.020 24.318 C 252.811 24.143,252.237 24.000,251.744 24.000 C 251.251 24.000,250.749 23.841,250.629 23.646 C 250.508 23.451,249.913 23.196,249.305 23.079 C 248.697 22.962,247.570 22.683,246.800 22.461 C 238.709 20.118,228.991 18.157,220.600 17.174 C 211.500 16.107,198.546 15.807,188.000 16.418 M216.000 18.755 C 229.592 20.147,251.995 25.382,257.295 28.404 C 257.677 28.622,258.174 28.800,258.399 28.800 C 258.624 28.800,259.572 29.143,260.504 29.562 C 261.437 29.980,263.010 30.655,264.000 31.062 C 272.863 34.698,290.139 44.569,296.029 49.363 C 296.594 49.823,297.668 50.650,298.415 51.200 C 308.087 58.326,319.663 69.887,328.014 80.759 C 331.775 85.657,338.800 96.633,338.800 97.612 C 338.800 97.826,338.980 98.000,339.200 98.000 C 339.420 98.000,339.600 98.345,339.600 98.767 C 339.600 99.188,339.807 99.602,340.060 99.687 C 340.313 99.771,340.442 100.073,340.348 100.357 C 340.245 100.666,339.940 100.415,339.593 99.737 C 328.684 78.443,297.166 49.565,271.800 37.624 C 258.393 31.312,246.870 27.265,235.200 24.768 C 166.791 10.131,98.189 39.285,60.995 98.800 C 60.236 100.015,59.616 100.687,59.610 100.300 C 59.605 99.915,59.780 99.600,60.000 99.600 C 60.220 99.600,60.400 99.240,60.400 98.800 C 60.400 98.360,60.580 98.000,60.800 98.000 C 61.020 98.000,61.200 97.817,61.200 97.593 C 61.200 96.565,71.646 80.525,73.180 79.200 C 73.307 79.090,74.211 78.010,75.188 76.800 C 82.608 67.615,92.800 57.791,102.000 50.956 C 103.430 49.894,104.690 48.913,104.800 48.778 C 105.088 48.421,112.905 43.228,116.200 41.203 C 119.210 39.354,132.493 32.497,134.800 31.601 C 135.570 31.303,137.100 30.657,138.200 30.166 C 140.415 29.177,143.018 28.225,149.000 26.216 C 160.904 22.219,172.156 19.935,187.400 18.423 C 191.744 17.992,210.701 18.212,216.000 18.755 M168.800 121.597 C 172.690 122.038,176.054 122.758,178.200 123.608 C 178.640 123.783,179.720 124.193,180.600 124.520 C 183.574 125.625,185.600 126.587,185.600 126.894 C 185.600 127.062,185.790 127.200,186.022 127.200 C 186.387 127.200,190.372 129.750,191.931 130.981 C 197.793 135.607,203.528 143.289,206.056 149.900 C 206.245 150.395,206.559 151.205,206.754 151.700 C 207.744 154.214,208.661 158.684,209.113 163.200 C 209.521 167.277,208.418 178.494,207.558 179.026 C 207.361 179.148,207.200 179.676,207.200 180.200 C 207.200 180.724,207.020 181.264,206.800 181.400 C 206.580 181.536,206.400 181.911,206.400 182.234 C 206.400 186.833,198.063 197.670,189.400 204.332 C 189.180 204.501,188.190 205.081,187.200 205.620 C 186.210 206.159,185.310 206.690,185.200 206.801 C 184.985 207.016,183.481 207.724,181.700 208.447 C 181.095 208.692,180.287 209.052,179.905 209.247 C 179.523 209.441,178.936 209.600,178.600 209.600 C 178.264 209.600,177.677 209.762,177.295 209.961 C 176.611 210.316,175.254 210.690,171.494 211.559 C 169.177 212.095,158.852 212.144,156.846 211.628 C 156.051 211.424,154.320 211.035,153.000 210.764 C 151.680 210.493,150.429 210.120,150.220 209.936 C 150.011 209.751,149.514 209.600,149.115 209.600 C 148.716 209.600,148.077 209.441,147.695 209.246 C 147.313 209.052,145.740 208.299,144.200 207.573 C 138.751 205.005,131.493 199.196,127.981 194.591 C 126.815 193.063,124.975 190.199,124.388 189.000 C 124.065 188.340,123.704 187.710,123.585 187.600 C 123.060 187.115,121.065 182.096,120.202 179.090 C 113.793 156.760,125.645 133.060,147.600 124.305 C 148.150 124.086,148.913 123.748,149.295 123.553 C 149.677 123.359,150.431 123.200,150.971 123.200 C 151.511 123.200,152.045 123.050,152.158 122.867 C 152.272 122.684,153.857 122.323,155.682 122.063 C 157.507 121.804,159.450 121.529,160.000 121.451 C 161.847 121.189,165.776 121.254,168.800 121.597 M305.600 121.603 C 307.250 121.794,309.500 122.149,310.600 122.393 C 311.700 122.636,313.097 122.939,313.705 123.064 C 314.313 123.190,314.908 123.451,315.029 123.646 C 315.149 123.841,315.524 124.000,315.863 124.000 C 316.791 124.000,323.082 127.134,325.764 128.932 C 334.872 135.038,341.710 144.497,344.321 154.600 C 344.548 155.480,344.972 157.009,345.263 157.997 C 345.991 160.468,345.982 172.206,345.250 175.400 C 344.724 177.698,343.508 181.708,342.824 183.400 C 341.719 186.137,338.708 191.777,338.019 192.400 C 337.897 192.510,337.300 193.335,336.691 194.232 C 333.709 198.633,326.159 204.733,320.200 207.557 C 318.660 208.287,317.087 209.045,316.705 209.242 C 316.323 209.439,315.684 209.600,315.285 209.600 C 314.886 209.600,314.389 209.751,314.180 209.936 C 313.971 210.120,312.720 210.493,311.400 210.764 C 310.080 211.035,308.349 211.424,307.554 211.628 C 305.668 212.113,295.015 212.110,293.428 211.624 C 292.753 211.417,291.120 211.028,289.800 210.760 C 288.480 210.491,287.229 210.120,287.020 209.936 C 286.811 209.751,286.314 209.600,285.915 209.600 C 285.516 209.600,284.877 209.441,284.495 209.246 C 284.113 209.052,282.540 208.299,281.000 207.573 C 273.533 204.054,261.600 193.041,261.600 189.668 C 261.600 189.447,261.464 189.207,261.298 189.133 C 260.935 188.973,258.679 184.363,258.002 182.400 C 257.736 181.630,257.371 180.640,257.190 180.200 C 256.864 179.409,256.744 178.910,255.939 175.000 C 254.065 165.899,255.473 156.119,260.027 146.600 C 260.975 144.620,261.896 142.940,262.075 142.867 C 262.254 142.793,262.400 142.512,262.400 142.242 C 262.400 141.972,262.715 141.401,263.100 140.974 C 263.485 140.547,264.561 139.196,265.491 137.973 C 269.664 132.486,281.724 124.000,285.350 124.000 C 285.681 124.000,286.051 123.841,286.171 123.646 C 286.292 123.451,286.887 123.193,287.495 123.072 C 288.103 122.951,289.500 122.641,290.600 122.384 C 295.159 121.318,300.651 121.032,305.600 121.603 " stroke="none" fill="#eb1c24" fill-rule="evenodd"></path><path id="path1" d="M192.000 14.235 C 182.759 14.857,173.486 15.998,166.400 17.385 C 163.593 17.934,162.717 18.134,158.600 19.163 C 157.720 19.383,156.280 19.738,155.400 19.951 C 150.685 21.093,144.804 22.907,143.505 23.619 C 143.123 23.829,142.544 24.000,142.218 24.000 C 141.891 24.000,140.983 24.360,140.200 24.800 C 139.417 25.240,138.432 25.600,138.011 25.600 C 137.591 25.600,137.136 25.780,137.000 26.000 C 136.864 26.220,136.422 26.400,136.017 26.400 C 135.612 26.400,134.255 26.940,133.000 27.600 C 131.745 28.260,130.520 28.800,130.276 28.800 C 129.246 28.800,114.917 36.259,111.735 38.452 C 110.819 39.084,109.902 39.600,109.697 39.600 C 109.492 39.600,108.998 39.960,108.600 40.400 C 108.202 40.840,107.679 41.201,107.438 41.202 C 107.197 41.203,106.051 41.923,104.892 42.802 C 103.732 43.681,102.706 44.400,102.612 44.400 C 102.263 44.400,97.562 47.841,92.774 51.600 C 81.858 60.172,62.422 81.257,59.945 87.214 C 59.804 87.552,59.399 88.069,59.045 88.363 C 58.690 88.657,58.400 89.124,58.400 89.400 C 58.400 89.676,58.111 90.142,57.758 90.435 C 57.405 90.727,56.959 91.335,56.766 91.784 C 56.573 92.233,55.609 93.860,54.623 95.400 C 52.692 98.414,44.400 114.721,44.400 115.503 C 44.400 115.763,44.040 116.617,43.600 117.400 C 43.160 118.183,42.800 119.083,42.800 119.400 C 42.800 119.717,42.440 120.617,42.000 121.400 C 41.560 122.183,41.200 123.168,41.200 123.589 C 41.200 124.009,41.020 124.464,40.800 124.600 C 40.580 124.736,40.400 125.199,40.400 125.629 C 40.400 126.059,40.229 126.723,40.019 127.105 C 38.556 129.771,35.204 142.705,33.774 151.200 C 31.189 166.556,31.199 166.107,31.205 258.980 C 31.212 355.493,31.371 361.795,34.084 372.800 C 34.804 375.720,37.570 382.190,38.360 382.800 C 38.502 382.910,38.933 383.495,39.318 384.100 C 39.703 384.705,40.284 385.200,40.609 385.200 C 40.934 385.200,41.200 385.353,41.200 385.540 C 41.200 385.727,42.325 386.437,43.700 387.117 C 49.763 390.117,56.531 389.153,61.299 384.609 C 62.343 383.614,63.339 382.800,63.512 382.800 C 63.906 382.800,68.000 378.680,68.000 378.284 C 68.000 378.124,70.205 375.730,72.900 372.964 C 75.595 370.198,77.953 367.664,78.140 367.332 C 78.590 366.533,84.518 360.598,85.313 360.150 C 85.656 359.958,86.925 358.855,88.134 357.700 C 89.343 356.545,90.500 355.600,90.704 355.600 C 90.909 355.600,91.402 355.240,91.800 354.800 C 92.198 354.360,92.744 354.000,93.013 354.000 C 93.282 354.000,93.728 353.728,94.004 353.395 C 96.986 349.802,106.456 349.293,109.184 352.580 C 109.466 352.921,109.859 353.200,110.056 353.200 C 110.516 353.200,115.600 358.272,115.600 358.731 C 115.600 358.921,115.982 359.419,116.449 359.838 C 116.916 360.257,118.122 361.680,119.130 363.000 C 120.138 364.320,121.063 365.490,121.185 365.600 C 121.307 365.710,121.856 366.474,122.404 367.297 C 122.952 368.121,123.535 368.796,123.700 368.797 C 123.865 368.799,124.001 369.025,124.002 369.300 C 124.003 369.575,124.543 370.375,125.202 371.078 C 125.861 371.781,126.401 372.501,126.403 372.678 C 126.404 372.855,127.116 373.720,127.983 374.600 C 128.851 375.480,129.570 376.384,129.580 376.609 C 129.607 377.167,136.109 383.600,136.646 383.600 C 136.883 383.600,137.402 383.960,137.800 384.400 C 138.198 384.840,138.738 385.200,139.000 385.200 C 139.262 385.200,139.802 385.560,140.200 386.000 C 140.598 386.440,141.335 386.800,141.838 386.800 C 142.341 386.800,142.851 386.959,142.970 387.152 C 143.201 387.525,144.151 387.802,147.400 388.445 C 151.246 389.206,152.466 389.294,152.915 388.845 C 153.160 388.600,154.177 388.400,155.176 388.400 C 157.043 388.400,162.197 386.208,163.215 384.982 C 163.481 384.662,163.906 384.400,164.161 384.400 C 164.732 384.400,169.600 379.536,169.600 378.964 C 169.600 378.736,170.140 378.032,170.800 377.400 C 171.460 376.768,172.000 376.094,172.000 375.903 C 172.000 375.713,172.539 374.981,173.198 374.278 C 173.857 373.575,174.397 372.803,174.398 372.562 C 174.399 372.321,174.760 371.798,175.200 371.400 C 175.640 371.002,176.000 370.530,176.000 370.351 C 176.000 369.950,179.126 365.299,180.134 364.200 C 180.538 363.760,181.107 362.950,181.398 362.400 C 181.690 361.850,182.485 360.871,183.164 360.225 C 183.844 359.579,184.400 358.899,184.400 358.715 C 184.400 358.274,187.879 354.800,188.320 354.800 C 188.507 354.800,189.097 354.335,189.630 353.766 C 193.882 349.231,206.344 348.995,209.984 353.380 C 210.266 353.721,210.704 354.000,210.956 354.000 C 211.509 354.000,219.130 361.725,221.610 364.800 C 222.586 366.010,223.523 367.060,223.692 367.133 C 223.862 367.207,224.001 367.477,224.002 367.733 C 224.003 367.990,224.543 368.775,225.202 369.478 C 225.861 370.181,226.402 370.901,226.404 371.078 C 226.407 371.255,227.097 372.120,227.938 373.000 C 228.780 373.880,229.544 374.828,229.636 375.106 C 229.894 375.883,238.509 384.400,239.037 384.400 C 239.293 384.400,239.719 384.661,239.984 384.981 C 240.593 385.715,244.346 387.600,245.199 387.600 C 245.551 387.600,246.011 387.763,246.220 387.963 C 246.429 388.163,247.500 388.426,248.600 388.548 C 249.700 388.669,251.381 388.886,252.335 389.030 C 253.417 389.193,254.237 389.123,254.515 388.845 C 254.760 388.600,255.903 388.400,257.056 388.400 C 258.209 388.400,259.264 388.220,259.400 388.000 C 259.536 387.780,259.971 387.600,260.367 387.600 C 261.279 387.600,265.876 385.276,267.199 384.145 C 271.734 380.272,273.391 378.693,276.294 375.481 C 281.021 370.249,282.000 369.111,282.003 368.840 C 282.004 368.708,282.716 367.880,283.583 367.000 C 284.451 366.120,285.171 365.220,285.184 365.000 C 285.198 364.780,286.106 363.657,287.204 362.505 C 288.302 361.352,289.200 360.268,289.200 360.096 C 289.200 359.580,295.776 353.200,296.308 353.200 C 296.579 353.200,296.800 353.041,296.800 352.847 C 296.800 351.965,301.409 350.200,303.600 350.243 C 305.874 350.287,309.043 351.447,309.984 352.580 C 310.266 352.921,310.709 353.200,310.968 353.200 C 311.226 353.200,312.141 353.920,313.000 354.800 C 313.859 355.680,314.719 356.400,314.910 356.400 C 315.309 356.400,314.994 356.078,320.200 361.802 C 322.400 364.221,324.308 366.290,324.440 366.400 C 324.572 366.510,324.752 366.812,324.840 367.071 C 324.928 367.329,325.825 368.410,326.834 369.472 C 327.842 370.533,328.742 371.613,328.834 371.872 C 328.925 372.130,329.825 373.210,330.834 374.272 C 331.842 375.333,332.742 376.425,332.834 376.698 C 333.095 377.479,341.703 386.000,342.230 386.000 C 342.489 386.000,342.929 386.273,343.206 386.607 C 345.338 389.177,353.553 389.606,358.200 387.392 C 362.491 385.347,364.954 381.320,366.557 373.726 C 368.538 364.344,368.521 365.206,368.692 267.400 C 368.869 165.801,368.896 167.059,366.226 151.200 C 364.796 142.705,361.444 129.771,359.981 127.105 C 359.771 126.723,359.600 126.059,359.600 125.629 C 359.600 125.199,359.420 124.736,359.200 124.600 C 358.980 124.464,358.800 124.009,358.800 123.589 C 358.800 123.168,358.440 122.183,358.000 121.400 C 357.560 120.617,357.200 119.717,357.200 119.400 C 357.200 119.083,356.840 118.183,356.400 117.400 C 355.960 116.617,355.600 115.763,355.600 115.503 C 355.600 114.721,347.308 98.414,345.377 95.400 C 344.391 93.860,343.427 92.233,343.234 91.784 C 343.041 91.335,342.595 90.727,342.242 90.435 C 341.889 90.142,341.600 89.676,341.600 89.400 C 341.600 89.124,341.310 88.657,340.955 88.363 C 340.601 88.069,340.196 87.552,340.055 87.214 C 337.578 81.257,318.142 60.172,307.226 51.600 C 301.539 47.134,293.125 41.200,292.480 41.200 C 292.284 41.200,291.798 40.840,291.400 40.400 C 291.002 39.960,290.508 39.600,290.303 39.600 C 290.098 39.600,289.181 39.084,288.265 38.452 C 285.083 36.259,270.754 28.800,269.724 28.800 C 269.480 28.800,268.255 28.260,267.000 27.600 C 265.745 26.940,264.388 26.400,263.983 26.400 C 263.578 26.400,263.136 26.220,263.000 26.000 C 262.864 25.780,262.409 25.600,261.989 25.600 C 261.568 25.600,260.583 25.240,259.800 24.800 C 259.017 24.360,258.109 24.000,257.782 24.000 C 257.456 24.000,256.877 23.829,256.495 23.619 C 255.219 22.919,249.521 21.156,244.700 19.969 C 243.875 19.766,242.435 19.412,241.500 19.182 C 240.565 18.952,239.080 18.585,238.200 18.368 C 226.418 15.455,203.860 13.437,192.000 14.235 M207.000 15.600 C 207.145 15.835,209.471 16.000,212.624 16.000 C 215.941 16.000,218.000 16.153,218.000 16.400 C 218.000 16.633,219.333 16.800,221.200 16.800 C 223.067 16.800,224.400 16.967,224.400 17.200 C 224.400 17.422,225.467 17.600,226.800 17.600 C 228.133 17.600,229.200 17.778,229.200 18.000 C 229.200 18.220,230.179 18.400,231.376 18.400 C 232.573 18.400,233.664 18.580,233.800 18.800 C 233.936 19.020,234.847 19.200,235.824 19.200 C 236.801 19.200,237.600 19.380,237.600 19.600 C 237.600 19.820,238.320 20.000,239.200 20.000 C 240.080 20.000,240.800 20.180,240.800 20.400 C 240.800 20.620,241.419 20.800,242.176 20.800 C 242.933 20.800,243.664 20.980,243.800 21.200 C 243.936 21.420,244.577 21.600,245.224 21.600 C 245.871 21.600,246.400 21.780,246.400 22.000 C 246.400 22.220,247.120 22.400,248.000 22.400 C 248.880 22.400,249.600 22.580,249.600 22.800 C 249.600 23.020,250.039 23.200,250.576 23.200 C 251.113 23.200,251.664 23.380,251.800 23.600 C 251.936 23.820,252.476 24.000,253.000 24.000 C 253.524 24.000,254.064 24.180,254.200 24.400 C 254.336 24.620,254.887 24.800,255.424 24.800 C 255.961 24.800,256.400 24.980,256.400 25.200 C 256.400 25.420,256.940 25.600,257.600 25.600 C 258.260 25.600,258.800 25.780,258.800 26.000 C 258.800 26.220,259.160 26.400,259.600 26.400 C 260.040 26.400,260.400 26.541,260.400 26.713 C 260.400 26.885,260.866 27.064,261.436 27.111 C 262.007 27.158,263.132 27.486,263.936 27.839 C 264.741 28.193,265.760 28.621,266.200 28.792 C 269.711 30.153,279.200 34.873,279.200 35.258 C 279.200 35.446,279.560 35.600,280.000 35.600 C 280.440 35.600,280.800 35.780,280.800 36.000 C 280.800 36.220,281.160 36.400,281.600 36.400 C 282.040 36.400,282.400 36.559,282.400 36.753 C 282.400 36.948,282.715 37.207,283.100 37.329 C 284.036 37.625,286.166 38.924,286.333 39.300 C 286.407 39.465,286.722 39.600,287.033 39.600 C 287.345 39.600,287.600 39.780,287.600 40.000 C 287.600 40.220,287.894 40.400,288.253 40.400 C 288.612 40.400,289.197 40.716,289.553 41.103 C 289.909 41.489,290.695 42.060,291.300 42.370 C 291.905 42.681,292.400 43.085,292.400 43.268 C 292.400 43.450,292.627 43.600,292.905 43.600 C 293.357 43.600,297.500 46.178,298.000 46.770 C 298.110 46.900,298.874 47.456,299.697 48.004 C 300.521 48.552,301.196 49.135,301.197 49.300 C 301.199 49.465,301.455 49.600,301.767 49.600 C 302.078 49.600,302.393 49.742,302.467 49.915 C 302.540 50.088,303.406 50.853,304.390 51.615 C 305.375 52.377,306.818 53.646,307.597 54.436 C 308.376 55.225,309.234 55.945,309.504 56.036 C 310.114 56.240,316.941 62.576,320.024 65.800 C 324.897 70.894,326.800 73.012,326.800 73.339 C 326.800 73.526,327.340 74.183,328.000 74.800 C 328.660 75.417,329.200 76.075,329.200 76.264 C 329.200 76.453,329.560 76.832,330.000 77.107 C 330.440 77.382,330.800 77.836,330.800 78.115 C 330.800 78.395,331.160 78.883,331.600 79.200 C 332.040 79.517,332.400 79.927,332.400 80.110 C 332.400 80.293,332.939 81.019,333.598 81.722 C 334.257 82.425,334.797 83.145,334.798 83.322 C 334.799 83.499,335.339 84.219,335.998 84.922 C 336.657 85.625,337.197 86.326,337.198 86.480 C 337.199 86.634,337.785 87.624,338.500 88.680 C 340.190 91.176,341.165 92.831,341.458 93.700 C 341.587 94.085,341.852 94.400,342.047 94.400 C 342.241 94.400,342.400 94.670,342.400 95.000 C 342.400 95.330,342.580 95.600,342.800 95.600 C 343.020 95.600,343.200 95.870,343.200 96.200 C 343.200 96.530,343.346 96.800,343.525 96.800 C 343.704 96.800,344.098 97.430,344.400 98.200 C 344.702 98.970,345.062 99.600,345.200 99.600 C 345.338 99.600,345.698 100.230,346.000 101.000 C 346.302 101.770,346.696 102.400,346.875 102.400 C 347.054 102.400,347.200 102.760,347.200 103.200 C 347.200 103.640,347.380 104.000,347.600 104.000 C 347.820 104.000,348.000 104.203,348.000 104.452 C 348.000 104.700,348.900 106.692,350.000 108.877 C 351.100 111.062,352.000 113.109,352.000 113.425 C 352.000 113.741,352.180 114.000,352.400 114.000 C 352.620 114.000,352.800 114.272,352.800 114.605 C 352.800 114.938,352.972 115.523,353.181 115.905 C 353.978 117.357,356.400 124.029,356.400 124.774 C 356.400 125.202,356.580 125.664,356.800 125.800 C 357.020 125.936,357.200 126.487,357.200 127.024 C 357.200 127.561,357.380 128.000,357.600 128.000 C 357.820 128.000,358.000 128.540,358.000 129.200 C 358.000 129.860,358.180 130.400,358.400 130.400 C 358.620 130.400,358.800 130.929,358.800 131.576 C 358.800 132.223,358.980 132.864,359.200 133.000 C 359.420 133.136,359.600 133.766,359.600 134.400 C 359.600 135.034,359.780 135.664,360.000 135.800 C 360.220 135.936,360.400 136.656,360.400 137.400 C 360.400 138.144,360.580 138.864,360.800 139.000 C 361.020 139.136,361.200 139.867,361.200 140.624 C 361.200 141.381,361.362 142.000,361.560 142.000 C 361.897 142.000,362.038 142.719,362.639 147.500 C 362.770 148.545,363.040 149.571,363.239 149.780 C 363.437 149.989,363.600 151.103,363.600 152.256 C 363.600 153.409,363.780 154.464,364.000 154.600 C 364.220 154.736,364.400 156.086,364.400 157.600 C 364.400 159.114,364.580 160.464,364.800 160.600 C 365.031 160.742,365.200 162.871,365.200 165.624 C 365.200 168.570,365.355 170.400,365.604 170.400 C 366.147 170.400,365.819 347.588,365.259 357.000 C 364.897 363.080,364.638 365.593,363.767 371.503 C 363.629 372.439,363.355 373.305,363.158 373.426 C 362.961 373.548,362.800 374.076,362.800 374.600 C 362.800 375.124,362.620 375.664,362.400 375.800 C 362.180 375.936,362.000 376.397,362.000 376.824 C 362.000 377.251,361.820 377.600,361.600 377.600 C 361.380 377.600,361.200 377.960,361.200 378.400 C 361.200 378.840,361.050 379.200,360.868 379.200 C 360.685 379.200,360.316 379.605,360.048 380.100 C 358.459 383.031,352.205 385.025,348.291 383.848 C 344.495 382.705,340.846 379.347,332.590 369.400 C 330.399 366.760,328.513 364.510,328.398 364.400 C 328.283 364.290,327.383 363.210,326.398 362.000 C 311.157 343.275,300.746 340.775,289.452 353.129 C 288.543 354.123,287.440 355.312,287.000 355.772 C 286.560 356.232,285.129 357.956,283.821 359.604 C 282.512 361.252,281.341 362.690,281.218 362.800 C 281.096 362.910,280.522 363.630,279.943 364.400 C 279.364 365.170,278.555 366.189,278.145 366.664 C 277.735 367.139,276.774 368.309,276.008 369.264 C 268.211 378.989,260.360 383.986,252.862 383.996 C 244.089 384.007,240.003 380.967,227.069 364.800 C 226.805 364.470,226.145 363.570,225.603 362.800 C 225.061 362.030,224.221 360.999,223.736 360.509 C 223.251 360.019,222.347 358.939,221.727 358.109 C 218.846 354.253,210.423 347.200,208.698 347.200 C 208.402 347.200,207.989 347.057,207.780 346.882 C 206.651 345.936,203.870 345.455,199.565 345.461 L 194.931 345.468 191.369 347.192 C 187.902 348.870,180.411 355.345,179.790 357.200 C 179.680 357.530,178.962 358.518,178.195 359.396 C 177.428 360.273,176.800 361.203,176.800 361.462 C 176.800 361.721,176.650 361.993,176.466 362.067 C 176.283 362.140,174.814 364.180,173.201 366.600 C 164.241 380.047,159.111 384.098,151.058 384.084 C 143.480 384.071,134.995 377.783,127.198 366.400 C 126.670 365.630,126.137 364.910,126.012 364.800 C 125.887 364.690,124.446 362.800,122.809 360.600 C 105.961 337.963,97.379 339.611,68.600 371.012 C 56.474 384.243,52.752 386.149,45.497 382.844 C 43.670 382.012,40.400 378.982,40.400 378.121 C 40.400 377.834,40.220 377.600,40.000 377.600 C 39.780 377.600,39.600 377.240,39.600 376.800 C 39.600 376.360,39.420 376.000,39.200 376.000 C 38.980 376.000,38.800 375.640,38.800 375.200 C 38.800 374.760,38.620 374.400,38.400 374.400 C 38.180 374.400,38.000 373.961,38.000 373.424 C 38.000 372.887,37.820 372.336,37.600 372.200 C 37.380 372.064,37.200 371.434,37.200 370.800 C 37.200 370.166,37.020 369.536,36.800 369.400 C 36.580 369.264,36.400 368.389,36.400 367.456 C 36.400 366.523,36.238 365.589,36.039 365.380 C 35.646 364.966,35.372 362.096,34.761 352.000 C 34.204 342.791,33.843 171.659,34.378 170.600 C 34.600 170.160,34.870 167.820,34.977 165.400 C 35.279 158.601,35.627 155.036,36.031 154.620 C 36.234 154.411,36.400 153.322,36.400 152.200 C 36.400 151.078,36.563 149.989,36.761 149.780 C 36.960 149.571,37.224 148.590,37.349 147.600 C 37.844 143.656,38.100 142.385,38.442 142.174 C 38.639 142.052,38.800 141.344,38.800 140.600 C 38.800 139.856,38.980 139.136,39.200 139.000 C 39.420 138.864,39.600 138.133,39.600 137.376 C 39.600 136.619,39.780 136.000,40.000 136.000 C 40.220 136.000,40.400 135.381,40.400 134.624 C 40.400 133.867,40.580 133.136,40.800 133.000 C 41.020 132.864,41.200 132.223,41.200 131.576 C 41.200 130.929,41.380 130.400,41.600 130.400 C 41.820 130.400,42.000 129.860,42.000 129.200 C 42.000 128.540,42.180 128.000,42.400 128.000 C 42.620 128.000,42.800 127.460,42.800 126.800 C 42.800 126.140,42.980 125.600,43.200 125.600 C 43.420 125.600,43.600 125.248,43.600 124.819 C 43.600 124.389,43.772 123.624,43.982 123.119 C 44.192 122.613,44.836 120.940,45.412 119.400 C 46.716 115.914,47.353 114.478,49.940 109.185 C 51.073 106.867,52.000 104.752,52.000 104.485 C 52.000 104.218,52.146 104.000,52.325 104.000 C 52.504 104.000,52.898 103.370,53.200 102.600 C 53.502 101.830,53.896 101.200,54.075 101.200 C 54.254 101.200,54.400 100.840,54.400 100.400 C 54.400 99.960,54.546 99.600,54.725 99.600 C 54.904 99.600,55.298 98.970,55.600 98.200 C 55.902 97.430,56.296 96.800,56.475 96.800 C 56.654 96.800,56.800 96.530,56.800 96.200 C 56.800 95.870,56.980 95.600,57.200 95.600 C 57.420 95.600,57.600 95.330,57.600 95.000 C 57.600 94.670,57.780 94.400,58.000 94.400 C 58.220 94.400,58.400 94.164,58.400 93.875 C 58.400 93.587,58.760 92.964,59.200 92.492 C 59.640 92.020,60.000 91.356,60.000 91.017 C 60.000 90.678,60.150 90.400,60.332 90.400 C 60.515 90.400,60.920 89.905,61.231 89.300 C 61.979 87.848,64.508 84.236,64.895 84.067 C 65.063 83.993,65.201 83.723,65.202 83.467 C 65.203 83.210,65.743 82.425,66.402 81.722 C 67.061 81.019,67.600 80.293,67.600 80.110 C 67.600 79.927,67.960 79.517,68.400 79.200 C 68.840 78.883,69.200 78.395,69.200 78.115 C 69.200 77.836,69.560 77.382,70.000 77.107 C 70.440 76.832,70.800 76.453,70.800 76.264 C 70.800 76.075,71.340 75.417,72.000 74.800 C 72.660 74.183,73.200 73.521,73.200 73.328 C 73.200 73.135,73.560 72.717,74.000 72.400 C 74.440 72.083,74.800 71.665,74.800 71.471 C 74.800 71.024,88.227 57.600,88.674 57.600 C 88.858 57.600,89.232 57.240,89.507 56.800 C 89.782 56.360,90.199 56.000,90.435 56.000 C 90.670 56.000,91.528 55.325,92.341 54.500 C 93.154 53.675,94.625 52.377,95.610 51.615 C 96.594 50.853,97.460 50.088,97.533 49.915 C 97.607 49.742,97.922 49.600,98.233 49.600 C 98.545 49.600,98.801 49.465,98.803 49.300 C 98.804 49.135,99.479 48.552,100.303 48.004 C 101.126 47.456,101.890 46.894,102.000 46.757 C 102.342 46.328,106.743 43.600,107.092 43.600 C 107.274 43.600,107.683 43.240,108.000 42.800 C 108.317 42.360,108.857 42.000,109.200 42.000 C 109.543 42.000,110.083 41.640,110.400 41.200 C 110.717 40.760,111.297 40.400,111.688 40.400 C 112.080 40.400,112.400 40.220,112.400 40.000 C 112.400 39.780,112.670 39.600,113.000 39.600 C 113.330 39.600,113.600 39.420,113.600 39.200 C 113.600 38.980,113.870 38.800,114.200 38.800 C 114.530 38.800,114.800 38.654,114.800 38.475 C 114.800 38.296,115.430 37.902,116.200 37.600 C 116.970 37.298,117.600 36.904,117.600 36.725 C 117.600 36.546,117.960 36.400,118.400 36.400 C 118.840 36.400,119.200 36.220,119.200 36.000 C 119.200 35.780,119.560 35.600,120.000 35.600 C 120.440 35.600,120.800 35.420,120.800 35.200 C 120.800 34.980,121.055 34.800,121.367 34.800 C 121.678 34.800,121.993 34.659,122.067 34.488 C 122.244 34.073,127.483 31.600,128.185 31.600 C 128.486 31.600,128.793 31.465,128.867 31.300 C 128.992 31.018,132.029 29.473,133.800 28.790 C 134.240 28.620,135.259 28.193,136.064 27.839 C 136.868 27.486,137.993 27.158,138.564 27.111 C 139.134 27.064,139.600 26.885,139.600 26.713 C 139.600 26.541,139.960 26.400,140.400 26.400 C 140.840 26.400,141.200 26.220,141.200 26.000 C 141.200 25.780,141.740 25.600,142.400 25.600 C 143.060 25.600,143.600 25.420,143.600 25.200 C 143.600 24.980,144.140 24.800,144.800 24.800 C 145.460 24.800,146.000 24.620,146.000 24.400 C 146.000 24.180,146.540 24.000,147.200 24.000 C 147.860 24.000,148.400 23.820,148.400 23.600 C 148.400 23.380,148.839 23.200,149.376 23.200 C 149.913 23.200,150.464 23.020,150.600 22.800 C 150.736 22.580,151.467 22.400,152.224 22.400 C 152.981 22.400,153.600 22.220,153.600 22.000 C 153.600 21.780,154.129 21.600,154.776 21.600 C 155.423 21.600,156.064 21.420,156.200 21.200 C 156.336 20.980,157.067 20.800,157.824 20.800 C 158.581 20.800,159.200 20.620,159.200 20.400 C 159.200 20.180,159.909 20.000,160.776 20.000 C 161.643 20.000,162.464 19.820,162.600 19.600 C 162.736 19.380,163.546 19.200,164.400 19.200 C 165.254 19.200,166.064 19.020,166.200 18.800 C 166.336 18.580,167.427 18.400,168.624 18.400 C 169.821 18.400,170.800 18.220,170.800 18.000 C 170.800 17.778,171.867 17.600,173.200 17.600 C 174.533 17.600,175.600 17.422,175.600 17.200 C 175.600 16.967,176.933 16.800,178.800 16.800 C 180.667 16.800,182.000 16.633,182.000 16.400 C 182.000 16.153,184.059 16.000,187.376 16.000 C 190.529 16.000,192.855 15.835,193.000 15.600 C 193.149 15.359,195.930 15.200,200.000 15.200 C 204.070 15.200,206.851 15.359,207.000 15.600 M176.413 146.826 C 161.042 150.850,155.847 169.828,167.032 181.100 C 175.530 189.664,188.226 189.328,196.622 180.317 C 199.191 177.560,199.422 177.165,201.259 172.400 C 201.595 171.529,201.799 169.338,201.798 166.600 C 201.793 153.020,189.458 143.411,176.413 146.826 M313.276 146.810 C 299.259 150.482,293.173 166.457,301.272 178.319 C 309.837 190.863,329.243 189.799,336.288 176.400 C 344.523 160.738,330.237 142.367,313.276 146.810 " stroke="none" fill="#0e3c8b" fill-rule="evenodd"></path><path id="path2" d="M188.400 19.414 C 177.227 20.309,166.953 22.029,158.600 24.401 C 157.720 24.651,156.550 24.947,156.000 25.058 C 155.450 25.169,154.640 25.417,154.200 25.610 C 153.760 25.802,153.040 26.050,152.600 26.161 C 152.160 26.272,152.430 26.294,153.200 26.210 C 153.970 26.126,155.320 25.873,156.200 25.647 C 172.728 21.406,182.375 20.207,200.000 20.207 C 211.233 20.207,216.137 20.488,224.000 21.581 C 227.455 22.061,234.103 23.291,237.200 24.024 C 238.190 24.258,239.540 24.540,240.200 24.652 C 240.860 24.763,241.760 25.009,242.200 25.197 C 242.640 25.386,243.540 25.656,244.200 25.798 C 245.691 26.120,248.496 26.437,247.400 26.161 C 246.960 26.050,246.240 25.800,245.800 25.607 C 244.766 25.151,238.571 23.559,235.000 22.830 C 234.120 22.650,232.050 22.228,230.400 21.891 C 228.750 21.554,225.960 21.071,224.200 20.817 C 222.440 20.563,220.460 20.270,219.800 20.165 C 212.288 18.969,198.163 18.632,188.400 19.414 M150.100 27.076 C 150.485 27.176,151.115 27.176,151.500 27.076 C 151.885 26.975,151.570 26.893,150.800 26.893 C 150.030 26.893,149.715 26.975,150.100 27.076 M248.500 27.076 C 248.885 27.176,249.515 27.176,249.900 27.076 C 250.285 26.975,249.970 26.893,249.200 26.893 C 248.430 26.893,248.115 26.975,248.500 27.076 M156.600 122.404 C 155.940 122.582,154.410 122.941,153.200 123.203 C 138.952 126.286,124.771 139.486,121.187 153.000 C 121.012 153.660,120.552 155.280,120.165 156.600 C 119.249 159.718,119.110 172.135,119.950 175.800 C 123.566 191.583,134.366 203.926,149.000 209.001 C 155.573 211.281,164.372 212.213,169.680 211.192 C 177.570 209.675,177.988 209.551,183.000 207.224 C 210.983 194.231,217.424 156.819,195.437 134.989 C 188.566 128.168,181.531 124.513,171.269 122.432 C 168.837 121.939,158.404 121.919,156.600 122.404 M293.800 122.400 C 293.360 122.589,292.423 122.756,291.719 122.772 C 291.014 122.787,290.024 122.961,289.519 123.158 C 289.013 123.355,287.790 123.747,286.800 124.029 C 272.617 128.070,261.228 140.564,256.745 157.000 C 255.997 159.745,256.000 172.926,256.750 176.200 C 261.489 196.885,279.688 211.550,300.669 211.593 C 304.082 211.599,305.261 211.451,310.600 210.342 C 323.641 207.633,335.283 198.284,341.160 185.800 C 342.874 182.159,343.432 180.438,344.759 174.694 C 345.326 172.245,345.332 160.797,344.768 158.646 C 344.531 157.741,344.159 156.280,343.941 155.400 C 340.840 142.852,331.766 131.866,319.824 126.198 C 315.723 124.252,313.542 123.563,308.400 122.586 C 305.129 121.964,295.111 121.837,293.800 122.400 M187.389 146.887 C 202.431 151.633,207.089 170.194,196.017 181.266 C 182.806 194.477,160.903 185.207,160.814 166.366 C 160.751 152.910,174.511 142.824,187.389 146.887 M324.368 146.962 C 330.778 149.131,335.417 153.548,337.644 159.600 C 338.775 162.675,339.013 170.298,338.056 172.800 C 332.216 188.064,314.627 192.369,303.582 181.239 C 297.916 175.529,295.759 165.623,298.849 159.505 C 299.042 159.123,299.200 158.632,299.200 158.413 C 299.200 157.732,301.954 153.673,303.392 152.235 C 308.982 146.644,317.270 144.561,324.368 146.962 " stroke="none" fill="#fbf9f9" fill-rule="evenodd"></path><path id="path3" d="M193.000 15.600 C 192.855 15.835,190.529 16.000,187.376 16.000 C 183.854 16.000,182.000 16.146,182.000 16.424 C 182.000 16.713,182.927 16.749,184.900 16.536 C 188.663 16.132,211.337 16.132,215.100 16.536 C 217.073 16.749,218.000 16.713,218.000 16.424 C 218.000 16.146,216.146 16.000,212.624 16.000 C 209.471 16.000,207.145 15.835,207.000 15.600 C 206.851 15.359,204.070 15.200,200.000 15.200 C 195.930 15.200,193.149 15.359,193.000 15.600 M175.600 17.194 C 175.600 17.551,180.329 17.322,180.767 16.944 C 180.858 16.865,179.733 16.800,178.267 16.800 C 176.783 16.800,175.600 16.975,175.600 17.194 M218.433 16.945 C 218.847 17.304,224.400 17.520,224.400 17.177 C 224.400 16.970,223.020 16.800,221.333 16.800 C 219.647 16.800,218.342 16.865,218.433 16.945 M170.800 18.005 C 170.800 18.255,171.449 18.310,172.500 18.149 C 174.830 17.792,174.888 17.600,172.667 17.600 C 171.640 17.600,170.800 17.782,170.800 18.005 M225.633 17.744 C 226.091 18.141,229.200 18.368,229.200 18.005 C 229.200 17.782,228.360 17.600,227.333 17.600 C 226.307 17.600,225.542 17.665,225.633 17.744 M166.181 18.831 C 165.996 19.130,166.508 19.176,167.857 18.980 C 170.410 18.609,170.566 18.400,168.290 18.400 C 167.277 18.400,166.327 18.594,166.181 18.831 M230.033 18.549 C 230.497 18.963,234.065 19.229,233.819 18.831 C 233.673 18.594,232.723 18.400,231.710 18.400 C 230.696 18.400,229.942 18.467,230.033 18.549 M162.600 19.600 C 162.304 20.080,163.484 20.080,164.600 19.600 C 165.274 19.310,165.200 19.252,164.124 19.228 C 163.422 19.213,162.736 19.380,162.600 19.600 M235.400 19.600 C 236.512 20.078,237.600 20.078,237.600 19.600 C 237.600 19.380,236.925 19.213,236.100 19.228 C 234.897 19.251,234.758 19.324,235.400 19.600 M159.200 20.400 C 159.200 20.908,160.414 20.908,161.200 20.400 C 161.655 20.106,161.486 20.011,160.500 20.006 C 159.785 20.003,159.200 20.180,159.200 20.400 M239.000 20.400 C 240.105 20.875,240.800 20.875,240.800 20.400 C 240.800 20.180,240.215 20.013,239.500 20.028 C 238.411 20.052,238.330 20.112,239.000 20.400 M156.200 21.200 C 155.905 21.678,156.689 21.678,157.800 21.200 C 158.514 20.893,158.485 20.853,157.524 20.828 C 156.932 20.813,156.336 20.980,156.200 21.200 M242.200 21.200 C 243.311 21.678,244.095 21.678,243.800 21.200 C 243.664 20.980,243.068 20.813,242.476 20.828 C 241.515 20.853,241.486 20.893,242.200 21.200 M153.600 22.000 C 153.600 22.501,154.024 22.501,154.800 22.000 C 155.285 21.686,155.228 21.611,154.500 21.606 C 154.005 21.603,153.600 21.780,153.600 22.000 M245.200 22.000 C 245.976 22.501,246.400 22.501,246.400 22.000 C 246.400 21.780,245.995 21.603,245.500 21.606 C 244.772 21.611,244.715 21.686,245.200 22.000 M150.600 22.800 C 150.464 23.020,150.713 23.200,151.153 23.200 C 151.593 23.200,152.064 23.020,152.200 22.800 C 152.336 22.580,152.087 22.400,151.647 22.400 C 151.207 22.400,150.736 22.580,150.600 22.800 M248.000 22.800 C 248.783 23.306,249.600 23.306,249.600 22.800 C 249.600 22.580,249.105 22.403,248.500 22.406 C 247.643 22.411,247.532 22.498,248.000 22.800 M148.400 23.600 C 148.400 24.101,148.824 24.101,149.600 23.600 C 150.085 23.286,150.028 23.211,149.300 23.206 C 148.805 23.203,148.400 23.380,148.400 23.600 M250.600 23.600 C 250.736 23.820,251.117 24.000,251.447 24.000 C 251.777 24.000,251.936 23.820,251.800 23.600 C 251.664 23.380,251.283 23.200,250.953 23.200 C 250.623 23.200,250.464 23.380,250.600 23.600 M253.000 24.400 C 253.136 24.620,253.517 24.800,253.847 24.800 C 254.177 24.800,254.336 24.620,254.200 24.400 C 254.064 24.180,253.683 24.000,253.353 24.000 C 253.023 24.000,252.864 24.180,253.000 24.400 M143.600 25.200 C 143.600 25.420,143.859 25.600,144.176 25.600 C 144.493 25.600,144.864 25.420,145.000 25.200 C 145.136 24.980,144.877 24.800,144.424 24.800 C 143.971 24.800,143.600 24.980,143.600 25.200 M255.200 25.200 C 255.976 25.701,256.400 25.701,256.400 25.200 C 256.400 24.980,255.995 24.803,255.500 24.806 C 254.772 24.811,254.715 24.886,255.200 25.200 M141.200 26.000 C 141.200 26.220,141.459 26.400,141.776 26.400 C 142.093 26.400,142.464 26.220,142.600 26.000 C 142.736 25.780,142.477 25.600,142.024 25.600 C 141.571 25.600,141.200 25.780,141.200 26.000 M257.400 26.000 C 257.536 26.220,257.907 26.400,258.224 26.400 C 258.541 26.400,258.800 26.220,258.800 26.000 C 258.800 25.780,258.429 25.600,257.976 25.600 C 257.523 25.600,257.264 25.780,257.400 26.000 M136.000 27.852 C 135.230 28.201,134.240 28.624,133.800 28.793 C 132.056 29.460,128.993 31.017,128.867 31.300 C 128.793 31.465,128.486 31.600,128.185 31.600 C 127.483 31.600,122.244 34.073,122.067 34.488 C 121.993 34.659,121.678 34.800,121.367 34.800 C 121.055 34.800,120.800 34.980,120.800 35.200 C 120.800 35.420,120.440 35.600,120.000 35.600 C 119.560 35.600,119.200 35.780,119.200 36.000 C 119.200 36.220,118.840 36.400,118.400 36.400 C 117.960 36.400,117.600 36.546,117.600 36.725 C 117.600 36.904,116.970 37.298,116.200 37.600 C 115.430 37.902,114.800 38.296,114.800 38.475 C 114.800 38.654,114.530 38.800,114.200 38.800 C 113.870 38.800,113.600 38.980,113.600 39.200 C 113.600 39.420,113.330 39.600,113.000 39.600 C 112.670 39.600,112.400 39.780,112.400 40.000 C 112.400 40.220,112.080 40.400,111.688 40.400 C 111.297 40.400,110.717 40.760,110.400 41.200 C 110.083 41.640,109.580 42.000,109.283 42.000 C 108.559 42.000,107.427 43.165,107.807 43.519 C 107.973 43.674,108.190 43.575,108.288 43.300 C 108.386 43.025,108.642 42.800,108.855 42.800 C 109.069 42.800,110.269 42.104,111.522 41.254 C 115.710 38.413,126.795 32.488,132.200 30.202 C 133.080 29.830,134.492 29.182,135.338 28.763 C 136.184 28.343,137.118 28.000,137.414 28.000 C 137.710 28.000,138.064 27.820,138.200 27.600 C 138.561 27.016,137.603 27.126,136.000 27.852 M261.800 27.600 C 261.936 27.820,262.290 28.000,262.586 28.000 C 262.882 28.000,263.906 28.386,264.862 28.857 C 265.818 29.328,266.960 29.855,267.400 30.028 C 271.885 31.794,284.205 38.356,288.478 41.254 C 289.731 42.104,290.946 42.800,291.178 42.800 C 291.410 42.800,291.600 42.980,291.600 43.200 C 291.600 43.420,291.780 43.600,292.000 43.600 C 292.771 43.600,292.390 42.930,291.300 42.370 C 290.695 42.060,289.909 41.489,289.553 41.103 C 289.197 40.716,288.612 40.400,288.253 40.400 C 287.894 40.400,287.600 40.220,287.600 40.000 C 287.600 39.780,287.345 39.600,287.033 39.600 C 286.722 39.600,286.407 39.465,286.333 39.300 C 286.166 38.924,284.036 37.625,283.100 37.329 C 282.715 37.207,282.400 36.948,282.400 36.753 C 282.400 36.559,282.040 36.400,281.600 36.400 C 281.160 36.400,280.800 36.220,280.800 36.000 C 280.800 35.780,280.440 35.600,280.000 35.600 C 279.560 35.600,279.200 35.446,279.200 35.258 C 279.200 34.873,269.711 30.153,266.200 28.792 C 265.760 28.621,264.743 28.193,263.940 27.841 C 262.274 27.110,261.439 27.016,261.800 27.600 M104.400 45.075 C 103.190 45.863,102.110 46.621,102.000 46.758 C 101.890 46.895,101.126 47.456,100.303 48.004 C 99.479 48.552,98.804 49.135,98.803 49.300 C 98.801 49.465,98.545 49.600,98.233 49.600 C 97.922 49.600,97.607 49.742,97.533 49.915 C 97.460 50.088,96.594 50.853,95.610 51.615 C 94.625 52.377,93.154 53.675,92.341 54.500 C 91.528 55.325,90.670 56.000,90.435 56.000 C 90.199 56.000,89.782 56.360,89.507 56.800 C 89.232 57.240,88.858 57.600,88.674 57.600 C 88.227 57.600,74.800 71.024,74.800 71.471 C 74.800 71.665,74.440 72.083,74.000 72.400 C 73.560 72.717,73.200 73.135,73.200 73.328 C 73.200 73.521,72.660 74.183,72.000 74.800 C 71.340 75.417,70.800 76.075,70.800 76.264 C 70.800 76.453,70.440 76.832,70.000 77.107 C 69.560 77.382,69.200 77.836,69.200 78.115 C 69.200 78.395,68.840 78.883,68.400 79.200 C 67.960 79.517,67.600 79.927,67.600 80.110 C 67.600 80.293,67.061 81.019,66.402 81.722 C 65.743 82.425,65.203 83.210,65.202 83.467 C 65.201 83.723,65.063 83.993,64.895 84.067 C 64.508 84.236,61.979 87.848,61.231 89.300 C 60.920 89.905,60.515 90.400,60.332 90.400 C 60.150 90.400,60.000 90.678,60.000 91.017 C 60.000 91.356,59.640 92.020,59.200 92.492 C 58.760 92.964,58.400 93.587,58.400 93.875 C 58.400 94.164,58.220 94.400,58.000 94.400 C 57.780 94.400,57.600 94.670,57.600 95.000 C 57.600 95.330,57.420 95.600,57.200 95.600 C 56.980 95.600,56.800 95.870,56.800 96.200 C 56.800 96.530,56.654 96.800,56.475 96.800 C 56.296 96.800,55.902 97.430,55.600 98.200 C 55.298 98.970,54.904 99.600,54.725 99.600 C 54.546 99.600,54.400 99.960,54.400 100.400 C 54.400 100.840,54.254 101.200,54.075 101.200 C 53.896 101.200,53.502 101.830,53.200 102.600 C 52.898 103.370,52.504 104.000,52.325 104.000 C 52.146 104.000,52.000 104.218,52.000 104.485 C 52.000 104.752,51.073 106.867,49.940 109.185 C 47.353 114.478,46.716 115.914,45.412 119.400 C 44.836 120.940,44.192 122.613,43.982 123.119 C 43.772 123.624,43.600 124.389,43.600 124.819 C 43.600 125.248,43.420 125.600,43.200 125.600 C 42.980 125.600,42.800 126.140,42.800 126.800 C 42.800 127.460,42.620 128.000,42.400 128.000 C 42.180 128.000,42.000 128.540,42.000 129.200 C 42.000 129.860,41.820 130.400,41.600 130.400 C 41.380 130.400,41.200 130.929,41.200 131.576 C 41.200 132.223,41.020 132.864,40.800 133.000 C 40.580 133.136,40.400 133.867,40.400 134.624 C 40.400 135.381,40.220 136.000,40.000 136.000 C 39.780 136.000,39.600 136.619,39.600 137.376 C 39.600 138.133,39.420 138.864,39.200 139.000 C 38.980 139.136,38.800 139.856,38.800 140.600 C 38.800 141.344,38.639 142.052,38.442 142.174 C 38.100 142.385,37.844 143.656,37.349 147.600 C 37.224 148.590,36.960 149.571,36.761 149.780 C 36.563 149.989,36.400 151.078,36.400 152.200 C 36.400 153.322,36.234 154.411,36.031 154.620 C 35.627 155.036,35.279 158.601,34.977 165.400 C 34.870 167.820,34.600 170.160,34.378 170.600 C 33.843 171.659,34.204 342.791,34.761 352.000 C 35.372 362.096,35.646 364.966,36.039 365.380 C 36.238 365.589,36.400 366.523,36.400 367.456 C 36.400 368.389,36.580 369.264,36.800 369.400 C 37.020 369.536,37.200 370.166,37.200 370.800 C 37.200 371.434,37.380 372.064,37.600 372.200 C 37.820 372.336,38.000 372.887,38.000 373.424 C 38.000 373.961,38.180 374.400,38.400 374.400 C 38.620 374.400,38.800 374.760,38.800 375.200 C 38.800 375.640,38.980 376.000,39.200 376.000 C 39.420 376.000,39.600 376.360,39.600 376.800 C 39.600 377.240,39.780 377.600,40.000 377.600 C 40.220 377.600,40.400 377.834,40.400 378.121 C 40.400 378.982,43.670 382.012,45.497 382.844 C 52.752 386.149,56.474 384.243,68.600 371.012 C 97.379 339.611,105.961 337.963,122.809 360.600 C 124.446 362.800,125.887 364.690,126.012 364.800 C 126.137 364.910,126.670 365.630,127.198 366.400 C 134.995 377.783,143.480 384.071,151.058 384.084 C 159.111 384.098,164.241 380.047,173.201 366.600 C 174.814 364.180,176.283 362.140,176.466 362.067 C 176.650 361.993,176.800 361.721,176.800 361.462 C 176.800 361.203,177.428 360.273,178.195 359.396 C 178.962 358.518,179.680 357.530,179.790 357.200 C 180.411 355.345,187.902 348.870,191.369 347.192 L 194.931 345.468 199.565 345.461 C 203.870 345.455,206.651 345.936,207.780 346.882 C 207.989 347.057,208.402 347.200,208.698 347.200 C 210.423 347.200,218.846 354.253,221.727 358.109 C 222.347 358.939,223.251 360.019,223.736 360.509 C 224.221 360.999,225.061 362.030,225.603 362.800 C 226.145 363.570,226.805 364.470,227.069 364.800 C 240.003 380.967,244.089 384.007,252.862 383.996 C 260.360 383.986,268.211 378.989,276.008 369.264 C 276.774 368.309,277.735 367.139,278.145 366.664 C 278.555 366.189,279.364 365.170,279.943 364.400 C 280.522 363.630,281.096 362.910,281.218 362.800 C 281.341 362.690,282.512 361.252,283.821 359.604 C 285.129 357.956,286.560 356.232,287.000 355.772 C 287.440 355.312,288.543 354.123,289.452 353.129 C 300.746 340.775,311.157 343.275,326.398 362.000 C 327.383 363.210,328.283 364.290,328.398 364.400 C 328.513 364.510,330.399 366.760,332.590 369.400 C 340.846 379.347,344.495 382.705,348.291 383.848 C 352.205 385.025,358.459 383.031,360.048 380.100 C 360.316 379.605,360.685 379.200,360.868 379.200 C 361.050 379.200,361.200 378.840,361.200 378.400 C 361.200 377.960,361.380 377.600,361.600 377.600 C 361.820 377.600,362.000 377.251,362.000 376.824 C 362.000 376.397,362.180 375.936,362.400 375.800 C 362.620 375.664,362.800 375.124,362.800 374.600 C 362.800 374.076,362.961 373.548,363.158 373.426 C 363.355 373.305,363.629 372.439,363.767 371.503 C 364.638 365.593,364.897 363.080,365.259 357.000 C 365.819 347.588,366.147 170.400,365.604 170.400 C 365.355 170.400,365.200 168.570,365.200 165.624 C 365.200 162.871,365.031 160.742,364.800 160.600 C 364.580 160.464,364.400 159.114,364.400 157.600 C 364.400 156.086,364.220 154.736,364.000 154.600 C 363.780 154.464,363.600 153.409,363.600 152.256 C 363.600 151.103,363.437 149.989,363.239 149.780 C 363.040 149.571,362.770 148.545,362.639 147.500 C 362.038 142.719,361.897 142.000,361.560 142.000 C 361.362 142.000,361.200 141.381,361.200 140.624 C 361.200 139.867,361.020 139.136,360.800 139.000 C 360.580 138.864,360.400 138.144,360.400 137.400 C 360.400 136.656,360.220 135.936,360.000 135.800 C 359.780 135.664,359.600 135.034,359.600 134.400 C 359.600 133.766,359.420 133.136,359.200 133.000 C 358.980 132.864,358.800 132.223,358.800 131.576 C 358.800 130.929,358.620 130.400,358.400 130.400 C 358.180 130.400,358.000 129.860,358.000 129.200 C 358.000 128.540,357.820 128.000,357.600 128.000 C 357.380 128.000,357.200 127.561,357.200 127.024 C 357.200 126.487,357.020 125.936,356.800 125.800 C 356.580 125.664,356.400 125.202,356.400 124.774 C 356.400 124.029,353.978 117.357,353.181 115.905 C 352.972 115.523,352.800 114.938,352.800 114.605 C 352.800 114.272,352.620 114.000,352.400 114.000 C 352.180 114.000,352.000 113.741,352.000 113.425 C 352.000 113.109,351.100 111.062,350.000 108.877 C 348.900 106.692,348.000 104.700,348.000 104.452 C 348.000 104.203,347.820 104.000,347.600 104.000 C 347.380 104.000,347.200 103.640,347.200 103.200 C 347.200 102.760,347.054 102.400,346.875 102.400 C 346.696 102.400,346.302 101.770,346.000 101.000 C 345.698 100.230,345.338 99.600,345.200 99.600 C 345.062 99.600,344.702 98.970,344.400 98.200 C 344.098 97.430,343.704 96.800,343.525 96.800 C 343.346 96.800,343.200 96.530,343.200 96.200 C 343.200 95.870,343.020 95.600,342.800 95.600 C 342.580 95.600,342.400 95.330,342.400 95.000 C 342.400 94.670,342.241 94.400,342.047 94.400 C 341.852 94.400,341.587 94.085,341.458 93.700 C 341.165 92.831,340.190 91.176,338.500 88.680 C 337.785 87.624,337.199 86.634,337.198 86.480 C 337.197 86.326,336.657 85.625,335.998 84.922 C 335.339 84.219,334.799 83.499,334.798 83.322 C 334.797 83.145,334.257 82.425,333.598 81.722 C 332.939 81.019,332.400 80.293,332.400 80.110 C 332.400 79.927,332.040 79.517,331.600 79.200 C 331.160 78.883,330.800 78.395,330.800 78.115 C 330.800 77.836,330.440 77.382,330.000 77.107 C 329.560 76.832,329.200 76.453,329.200 76.264 C 329.200 76.075,328.660 75.417,328.000 74.800 C 327.340 74.183,326.800 73.526,326.800 73.339 C 326.800 73.012,324.897 70.894,320.024 65.800 C 316.941 62.576,310.114 56.240,309.504 56.036 C 309.234 55.945,308.376 55.225,307.597 54.436 C 306.818 53.646,305.375 52.377,304.390 51.615 C 303.406 50.853,302.540 50.088,302.467 49.915 C 302.393 49.742,302.078 49.600,301.767 49.600 C 301.455 49.600,301.199 49.465,301.197 49.300 C 301.196 49.135,300.521 48.552,299.697 48.004 C 298.874 47.456,298.110 46.900,298.000 46.770 C 297.578 46.270,293.392 43.600,293.030 43.600 C 292.820 43.600,293.036 43.960,293.508 44.400 C 293.980 44.840,294.462 45.200,294.578 45.200 C 294.885 45.200,302.868 51.283,306.600 54.361 C 315.836 61.979,326.825 73.591,333.135 82.400 C 334.698 84.581,341.174 94.278,341.972 95.631 C 349.005 107.560,355.447 122.379,358.475 133.600 C 358.833 134.926,359.019 135.659,360.022 139.700 C 361.930 147.390,363.087 154.527,363.897 163.600 C 364.474 170.071,364.263 354.805,363.673 360.343 C 362.344 372.793,360.387 377.607,355.647 380.083 C 349.303 383.397,345.098 380.821,332.983 366.200 C 317.952 348.060,311.989 343.252,304.064 342.881 C 296.484 342.526,291.997 345.882,279.497 361.255 C 266.817 376.849,260.974 381.200,252.715 381.200 C 244.788 381.200,239.773 377.297,227.642 361.687 C 215.341 345.858,206.638 340.774,195.710 343.031 C 187.398 344.748,182.499 349.152,171.997 364.345 C 163.109 377.203,158.801 380.806,151.914 381.136 C 143.875 381.521,138.170 377.153,126.617 361.767 C 106.263 334.661,98.136 335.551,67.873 368.200 C 58.125 378.717,54.976 381.165,51.171 381.189 C 43.645 381.235,38.878 374.361,37.033 360.800 C 35.732 351.236,35.600 341.533,35.601 255.200 C 35.602 157.614,35.482 161.649,38.875 144.600 C 39.522 141.348,40.729 136.596,41.242 135.281 C 41.439 134.776,41.600 134.008,41.600 133.576 C 41.600 133.143,41.761 132.477,41.959 132.095 C 42.156 131.713,42.910 129.510,43.633 127.200 C 44.357 124.890,45.065 122.820,45.207 122.600 C 45.349 122.380,45.879 121.030,46.385 119.600 C 47.871 115.399,52.469 105.432,54.735 101.500 C 55.211 100.675,55.978 99.325,56.441 98.500 C 59.069 93.810,63.536 86.887,66.302 83.216 C 67.054 82.217,68.059 80.873,68.535 80.229 C 76.907 68.892,92.321 54.163,104.275 46.078 C 106.648 44.473,107.614 43.577,106.924 43.620 C 106.746 43.631,105.610 44.286,104.400 45.075 M160.940 166.400 C 160.940 168.270,161.009 169.035,161.093 168.100 C 161.177 167.165,161.177 165.635,161.093 164.700 C 161.009 163.765,160.940 164.530,160.940 166.400 M338.493 164.800 C 338.493 165.570,338.575 165.885,338.676 165.500 C 338.776 165.115,338.776 164.485,338.676 164.100 C 338.575 163.715,338.493 164.030,338.493 164.800 M195.781 181.300 L 194.200 183.000 195.900 181.419 C 197.481 179.948,197.784 179.600,197.481 179.600 C 197.416 179.600,196.651 180.365,195.781 181.300 M332.378 181.500 L 331.000 183.000 332.500 181.622 C 333.896 180.338,334.184 180.000,333.878 180.000 C 333.812 180.000,333.137 180.675,332.378 181.500 M180.705 187.483 C 181.202 187.579,181.922 187.575,182.305 187.475 C 182.687 187.375,182.280 187.296,181.400 187.301 C 180.520 187.305,180.207 187.387,180.705 187.483 M317.505 187.483 C 318.002 187.579,318.722 187.575,319.105 187.475 C 319.487 187.375,319.080 187.296,318.200 187.301 C 317.320 187.305,317.007 187.387,317.505 187.483 " stroke="none" fill="#a1131a" fill-rule="evenodd"></path><path id="path4" d="M187.400 18.423 C 172.156 19.935,160.904 22.219,149.000 26.216 C 143.018 28.225,140.415 29.177,138.200 30.166 C 137.100 30.657,135.570 31.303,134.800 31.601 C 132.493 32.497,119.210 39.354,116.200 41.203 C 112.905 43.228,105.088 48.421,104.800 48.778 C 104.690 48.913,103.430 49.894,102.000 50.956 C 92.800 57.791,82.608 67.615,75.188 76.800 C 74.211 78.010,73.307 79.090,73.180 79.200 C 71.646 80.525,61.200 96.565,61.200 97.593 C 61.200 97.817,61.020 98.000,60.800 98.000 C 60.580 98.000,60.400 98.360,60.400 98.800 C 60.400 99.240,60.220 99.600,60.000 99.600 C 59.780 99.600,59.605 99.915,59.610 100.300 C 59.616 100.687,60.236 100.015,60.995 98.800 C 98.189 39.285,166.791 10.131,235.200 24.768 C 246.870 27.265,258.393 31.312,271.800 37.624 C 297.166 49.565,328.684 78.443,339.593 99.737 C 339.940 100.415,340.245 100.666,340.348 100.357 C 340.442 100.073,340.313 99.771,340.060 99.687 C 339.807 99.602,339.600 99.188,339.600 98.767 C 339.600 98.345,339.420 98.000,339.200 98.000 C 338.980 98.000,338.800 97.826,338.800 97.612 C 338.800 96.633,331.775 85.657,328.014 80.759 C 319.663 69.887,308.087 58.326,298.415 51.200 C 297.668 50.650,296.594 49.823,296.029 49.363 C 290.139 44.569,272.863 34.698,264.000 31.062 C 263.010 30.655,261.437 29.980,260.504 29.562 C 259.572 29.143,258.624 28.800,258.399 28.800 C 258.174 28.800,257.677 28.622,257.295 28.404 C 253.279 26.114,233.770 21.131,222.600 19.542 C 213.972 18.315,194.673 17.701,187.400 18.423 M211.000 19.393 C 215.180 19.712,219.140 20.060,219.800 20.165 C 220.460 20.270,222.440 20.563,224.200 20.817 C 225.960 21.071,228.750 21.554,230.400 21.891 C 232.050 22.228,234.120 22.650,235.000 22.830 C 238.571 23.559,244.766 25.151,245.800 25.607 C 246.240 25.800,246.960 26.050,247.400 26.161 C 248.496 26.437,245.691 26.120,244.200 25.798 C 243.540 25.656,242.640 25.386,242.200 25.197 C 241.760 25.009,240.860 24.763,240.200 24.652 C 239.540 24.540,238.190 24.258,237.200 24.024 C 234.103 23.291,227.455 22.061,224.000 21.581 C 216.137 20.488,211.233 20.207,200.000 20.207 C 182.375 20.207,172.728 21.406,156.200 25.647 C 155.320 25.873,153.970 26.126,153.200 26.210 C 152.430 26.294,152.160 26.272,152.600 26.161 C 153.040 26.050,153.760 25.802,154.200 25.610 C 154.640 25.417,155.450 25.169,156.000 25.058 C 156.550 24.947,157.720 24.651,158.600 24.401 C 174.217 19.966,193.899 18.085,211.000 19.393 M151.500 27.076 C 151.115 27.176,150.485 27.176,150.100 27.076 C 149.715 26.975,150.030 26.893,150.800 26.893 C 151.570 26.893,151.885 26.975,151.500 27.076 M249.900 27.076 C 249.515 27.176,248.885 27.176,248.500 27.076 C 248.115 26.975,248.430 26.893,249.200 26.893 C 249.970 26.893,250.285 26.975,249.900 27.076 M160.000 121.451 C 159.450 121.529,157.507 121.804,155.682 122.063 C 153.857 122.323,152.272 122.684,152.158 122.867 C 152.045 123.050,151.511 123.200,150.971 123.200 C 150.431 123.200,149.677 123.359,149.295 123.553 C 148.913 123.748,148.150 124.086,147.600 124.305 C 125.645 133.060,113.793 156.760,120.202 179.090 C 121.065 182.096,123.060 187.115,123.585 187.600 C 123.704 187.710,124.065 188.340,124.388 189.000 C 124.711 189.660,125.513 191.006,126.170 191.991 C 130.355 198.270,137.429 204.382,144.200 207.573 C 145.740 208.299,147.313 209.052,147.695 209.246 C 148.077 209.441,148.716 209.600,149.115 209.600 C 149.514 209.600,150.011 209.751,150.220 209.936 C 150.429 210.120,151.680 210.493,153.000 210.764 C 154.320 211.035,156.051 211.424,156.846 211.628 C 158.852 212.144,169.177 212.095,171.494 211.559 C 175.254 210.690,176.611 210.316,177.295 209.961 C 177.677 209.762,178.264 209.600,178.600 209.600 C 178.936 209.600,179.523 209.441,179.905 209.247 C 180.287 209.052,181.095 208.692,181.700 208.447 C 183.481 207.724,184.985 207.016,185.200 206.801 C 185.310 206.690,186.210 206.159,187.200 205.620 C 188.190 205.081,189.180 204.501,189.400 204.332 C 198.063 197.670,206.400 186.833,206.400 182.234 C 206.400 181.911,206.580 181.536,206.800 181.400 C 207.020 181.264,207.200 180.724,207.200 180.200 C 207.200 179.676,207.361 179.148,207.558 179.026 C 208.418 178.494,209.521 167.277,209.113 163.200 C 208.661 158.684,207.744 154.214,206.754 151.700 C 206.559 151.205,206.245 150.395,206.056 149.900 C 203.528 143.289,197.793 135.607,191.931 130.981 C 190.372 129.750,186.387 127.200,186.022 127.200 C 185.790 127.200,185.600 127.062,185.600 126.894 C 185.600 126.587,183.574 125.625,180.600 124.520 C 179.720 124.193,178.640 123.783,178.200 123.608 C 173.948 121.922,164.541 120.807,160.000 121.451 M295.200 121.615 C 293.770 121.781,291.700 122.127,290.600 122.384 C 289.500 122.641,288.103 122.951,287.495 123.072 C 286.887 123.193,286.292 123.451,286.171 123.646 C 286.051 123.841,285.681 124.000,285.350 124.000 C 281.724 124.000,269.664 132.486,265.491 137.973 C 264.561 139.196,263.485 140.547,263.100 140.974 C 262.715 141.401,262.400 141.972,262.400 142.242 C 262.400 142.512,262.254 142.793,262.075 142.867 C 261.786 142.985,258.794 148.945,257.993 151.000 C 257.038 153.448,256.471 155.621,255.593 160.201 C 255.076 162.898,255.285 171.823,255.939 175.000 C 256.744 178.910,256.864 179.409,257.190 180.200 C 257.371 180.640,257.736 181.630,258.002 182.400 C 258.679 184.363,260.935 188.973,261.298 189.133 C 261.464 189.207,261.600 189.447,261.600 189.668 C 261.600 193.041,273.533 204.054,281.000 207.573 C 282.540 208.299,284.113 209.052,284.495 209.246 C 284.877 209.441,285.516 209.600,285.915 209.600 C 286.314 209.600,286.811 209.751,287.020 209.936 C 287.229 210.120,288.480 210.491,289.800 210.760 C 291.120 211.028,292.753 211.417,293.428 211.624 C 295.015 212.110,305.668 212.113,307.554 211.628 C 308.349 211.424,310.080 211.035,311.400 210.764 C 312.720 210.493,313.971 210.120,314.180 209.936 C 314.389 209.751,314.886 209.600,315.285 209.600 C 315.684 209.600,316.323 209.439,316.705 209.242 C 317.087 209.045,318.660 208.287,320.200 207.557 C 326.159 204.733,333.709 198.633,336.691 194.232 C 337.300 193.335,337.897 192.510,338.019 192.400 C 338.708 191.777,341.719 186.137,342.824 183.400 C 343.508 181.708,344.724 177.698,345.250 175.400 C 345.982 172.206,345.991 160.468,345.263 157.997 C 344.972 157.009,344.548 155.480,344.321 154.600 C 341.710 144.497,334.872 135.038,325.764 128.932 C 323.082 127.134,316.791 124.000,315.863 124.000 C 315.524 124.000,315.149 123.841,315.029 123.646 C 314.908 123.451,314.313 123.190,313.705 123.064 C 313.097 122.939,311.700 122.636,310.600 122.393 C 305.746 121.317,300.190 121.037,295.200 121.615 M171.269 122.432 C 216.515 131.605,222.280 192.859,179.400 208.821 C 176.798 209.790,176.147 209.949,169.680 211.192 C 164.372 212.213,155.573 211.281,149.000 209.001 C 134.366 203.926,123.566 191.583,119.950 175.800 C 119.110 172.135,119.249 159.718,120.165 156.600 C 120.552 155.280,121.012 153.660,121.187 153.000 C 124.771 139.486,138.952 126.286,153.200 123.203 C 154.410 122.941,155.940 122.582,156.600 122.404 C 158.404 121.919,168.837 121.939,171.269 122.432 M308.400 122.586 C 313.542 123.563,315.723 124.252,319.824 126.198 C 331.766 131.866,340.840 142.852,343.941 155.400 C 344.159 156.280,344.531 157.741,344.768 158.646 C 345.332 160.797,345.326 172.245,344.759 174.694 C 343.432 180.438,342.874 182.159,341.160 185.800 C 335.283 198.284,323.641 207.633,310.600 210.342 C 305.261 211.451,304.082 211.599,300.669 211.593 C 279.688 211.550,261.489 196.885,256.750 176.200 C 256.000 172.926,255.997 159.745,256.745 157.000 C 261.228 140.564,272.617 128.070,286.800 124.029 C 287.790 123.747,289.013 123.355,289.519 123.158 C 290.024 122.961,291.014 122.787,291.719 122.772 C 292.423 122.756,293.360 122.589,293.800 122.400 C 295.111 121.837,305.129 121.964,308.400 122.586 " stroke="none" fill="#f47175" fill-rule="evenodd"></path></g></svg>