<svg xmlns="http://www.w3.org/2000/svg" viewBox="0 0 605.79 909.16"><g id="light_hair_" data-name="light hair\"><path d="M282,723.71c7.82.63,24.58-3.85,24.58-3.85l-4-20.12s-13.89-2.81-22.12-6.53a94.05,94.05,0,0,1-12.29-6.44s-6.76,2.54-19.94,7.3a153.23,153.23,0,0,0-22.45,10.16l7.92-8.92A100.52,100.52,0,0,0,204,709.7c-15.29,10.74-20.65,24.66-20.65,24.66s16.42-8.6,27.94-9.06,49.64-1.19,49.64-1.19l-10.33-6.28S274.12,723.08,282,723.71Z" transform="translate(-13.03 -12.64)"/><path d="M415.36,700.55a100.38,100.38,0,0,0-30.76-11.91l8.62,8.23A153,153,0,0,0,370,688.59c-13.52-3.67-20.46-5.65-20.46-5.65a94.75,94.75,0,0,1-11.72,7.42c-7.91,4.39-21.52,8.32-21.52,8.32L314,719.06s17.06,3.09,24.81,1.83,30.77-8.43,30.77-8.43l-9.78,7.1s38-2.38,49.57-2.87,28.6,6.75,28.6,6.75S431.47,710,415.36,700.55Z" transform="translate(-13.03 -12.64)"/><path d="M252.33,444.45s-46.63-9.32-59.65-9.83a110.92,110.92,0,0,0-44.94,7.91c-15.83,6.38-29.36,19.92-29.36,19.92s25.28-12.26,59.24-9.19,82.47,11.48,82.47,11.48Z" transform="translate(-13.03 -12.64)"/><path d="M421.7,434.62c-13,.51-59.65,9.83-59.65,9.83l-7.75,20.29s48.51-8.42,82.47-11.48S496,462.45,496,462.45s-13.53-13.54-29.36-19.92A110.92,110.92,0,0,0,421.7,434.62Z" transform="translate(-13.03 -12.64)"/><path d="M617,451.85c-2.87-8.14-7.78-11.05-11.39-12.05a18.25,18.25,0,0,0-11.18.79c-1.31-7-3.34-21.22-3.34-42.65,0-31.66-.85-113.71-7.49-157.62s-33.7-58.72-33.7-58.72,5.11-22.47-26-61.28-73-49.53-73-49.53-37.28-24.51-96.51-47-107.75-4.09-107.75-4.09,22.17-1,41.22,5.62c0,0-57.56-3.57-114.75,25.53S63.23,167.81,63.23,167.81l18.39-12.26s-35.75,42.39-42.39,87.83c-6.16,42.22-10.18,141.13-.9,197.55a18.79,18.79,0,0,0-12.07-1.13c-3.61,1-8.52,3.91-11.39,12.05-3.44,9.75-1.46,17.13,1.05,26.49,2.61,9.76,6.19,23.14,5.41,46.73-1.39,41.7,10.6,67.91,13.78,74.08.08,6.9,1.42,35.11,17.76,47C64,654.23,74,655.84,80.1,655.84a30.49,30.49,0,0,0,4.63-.33c6.27,27,13.42,52.7,20.89,69.57,23,51.92,50.27,94.74,77.72,122.9,39,40,75,64.93,129.35,73.82h11.39c23.77-3.89,44-10.85,62.58-20.8l1.17-.26.58-.7c23.12-12.71,43.63-30.11,65-52.06,27.44-28.16,54.74-71,77.72-122.9,7.43-16.8,14.56-42.36,20.8-69.24,6.16,0,16-1.7,27-9.71,16.33-11.87,17.68-40.08,17.75-47,3.18-6.17,15.18-32.38,13.79-74.08-.79-23.6,2.79-37,5.41-46.73C618.43,469,620.41,461.6,617,451.85ZM427.64,62.27l-1.34-.67s.47.21,1.34.67c85.54,42.53,93.42,94.82,93.42,94.82,2.33-16.35-10.51-42.9-10.51-42.9,34.22,50.55,16.34,81.19,16.34,81.19,7.15-21.44-2-45.44-2-45.44,5.36,25-1.87,41-1.87,41,3.06-23.49-7.83-36.77-7.83-36.77,8.17,22.81,0,49,0,49,1.7-45.61-17.36-62.3-17.36-62.3,16.44,31.87,6.81,64.69,6.81,64.69-3.41-67.07-35.07-90.9-35.07-90.9,30.64,36.77,18.56,96.51,18.56,96.51s7.14-36.25-26.56-91.91-80.68-76.09-80.68-76.09c82.26,30.5,128.68,105.7,128.68,105.7C473,88.09,435.14,66.18,427.64,62.27Zm28.57,104.52c-13-57.19-51.36-89.88-51.36-89.88,74.07,60.16,65.87,134.3,65.87,134.3,1.88-19.23-12.08-52.93-12.08-52.93,6.77,25.58-2.43,52.93-2.43,52.93C462.28,174.62,440.6,146,440.6,146c16.34,29.62,4.42,63.32,4.42,63.32,6.13-36.43-8.51-52.43-8.51-52.43,7.83,31-6.13,52.09-6.13,52.09C441.62,170.19,412,129.51,412,129.51c9.84,26.17,3.71,57.19,3.71,57.19-.89-75.57-47.62-117.44-47.62-117.44,45.44,37.27,65.36,82.21,65.36,82.21-12.77-51.07-73-103.66-73-103.66C435,97.34,456.21,166.79,456.21,166.79Zm-130-47C273.11,40.66,187.32,57,187.32,57c83.74-28.6,141.45,30.64,141.45,30.64C297.11,46.79,246,32.49,246,32.49c121.53,23,134.81,102.13,134.81,102.13-21.45-38.81-47.49-51.07-47.49-51.07,38.81,42.9,48.51,107.75,48.51,107.75-23.49-75.07-60.25-95.49-60.25-95.49C365,137.17,375.23,210.7,375.23,210.7c-24.51-69.44-68.93-96-68.93-96,37.79,31.15,46.47,94.47,46.47,94.47-31.66-95-110.3-124.6-110.3-124.6,51.06,23.49,83.23,99.07,83.23,99.07C240.43,55,155.15,74.87,155.15,74.87,235.32,31,326.21,119.81,326.21,119.81ZM188.34,172.4s-35.74-35.23-86.81-24c0,0,44.94-18.89,95,17.37,0,0-26-29.62-64.85-29.62,0,0,40.85-11.75,71,13.28,0,0-42.38-43.92-107.24-18.9,0,0,38.81-28.08,96-7.66s92.43,73,92.43,73-40.34-38.8-72.51-49.53c0,0,44.42,49,92.94,72,0,0-49-16.34-99.58-60.76,0,0,37.79,52.59,90.38,73,0,0-29.61,1-71.49-26.05S122.47,151,79.06,184.15C79.06,184.15,120.43,140.23,188.34,172.4Zm-46,45.45C91.32,217.34,74,242.36,74,242.36c22.47-7.66,49.53-1.53,49.53-1.53-68.43-3.57-84.26,41.87-84.26,41.87C62.21,203.55,142.38,217.85,142.38,217.85Zm-83,419.38C48,629,46,606,46.11,597.88l0-1.53L45.38,595c-.15-.25-14.52-25.7-13.06-69.58.84-25.23-3-39.52-5.78-50-2.32-8.67-3.6-13.45-1.29-20,1-2.94,2.37-4.66,3.95-5.11,3-.86,7.83,2,9.67,3.45l2.89,1.91c2.92,7.48,11.27,30.52,17.9,64.9,1.1,5.7,2.06,11.33,2.93,17l0,.2c.17,1.07.33,2.14.49,3.21,1.95,12.66,9.24,58.63,19.2,103.73C79.13,645.1,70.25,645.16,59.33,637.23ZM445,803.38a353.16,353.16,0,0,1-27.11,27.88c-8.34,7.61-17.71,14.58-29.36,15.33a75.73,75.73,0,0,1-11-.15c-6-1.17-12.76-2.17-20.39-2.89-2.18-.2-4.3-.38-6.39-.55-.28,0-.55-.07-.83-.09l-1-.06c-30-2.29-51-1-61.18,0l-1,.06c-1.83.16-3.66.38-5.48.62l-.38,0a.18.18,0,0,0-.1,0c-4.19.55-8.38,1.23-12.56,1.81a97.64,97.64,0,0,1-20.06,1.19c-11.65-.75-21-7.72-29.37-15.33a354.94,354.94,0,0,1-27.11-27.88c-26-29.61-61.61-78-86.12-131.57S70.89,525.26,70.89,525.26s0-56.17-1.53-88.86,43.92-63.83,45.45-84.25S95.91,295,99.49,271s71-27.07,71-27.07l-9.19-5.1a339.61,339.61,0,0,1,60.25,2c31.66,4.08,86.3-5.62,86.3-5.62l-20.06-3.06a351.07,351.07,0,0,0,55.29-4.09c28.6-4.59,59.24-14.29,59.24-14.29L388.51,226s33.7-8.68,61.79-7.15,61.27,11.24,78.13,34.22-5.62,99.06-1.54,106.72,33.2,36.76,35.24,66.89c1.48,21.86,4.3,68.45,2.23,110.52-3.64,26.83-14.06,92.7-33.21,134.59C506.64,725.43,471.06,773.77,445,803.38ZM605.3,475.49c-2.79,10.43-6.62,24.72-5.78,50,1.46,43.62-12.91,69.33-13,69.58l-.76,1.33,0,1.53c.16,8.16-1.91,31.14-13.22,39.35-7.31,5.31-13.67,7-18,7.51,3.54-16.06,6.75-32.22,9.5-47l.72,2.69s2.3-15.44,5-34.78c1.93-11.41,3.3-20.16,4-24.67.16-1.07.33-2.14.49-3.21l0-.2c.87-5.62,1.83-11.25,2.93-17l-1.71.7c.7-6,1.29-11.5,1.71-16.19,1.76-19.64,9-38.85,13.81-49.93l1.59-1.05.45-.33c1.86-1.5,6.67-4.32,9.68-3.46,1.59.45,2.92,2.17,4,5.11C608.91,462,607.63,466.82,605.3,475.49Z" transform="translate(-13.03 -12.64)"/><path d="M309.07,795.22a80.58,80.58,0,0,1-11.63.2,43.9,43.9,0,0,1-6.85-1c-1.66-.39-4.42-2.12-6-2.07l-16.86.51c1.23,0,4,2.24,5.09,2.8a134.58,134.58,0,0,0,13.59,6.11c7.16,2.75,14.59,5.19,22.27,5.87a38.17,38.17,0,0,0,4,.13c6.15-.1,12.08-1.61,18-3.47a117.68,117.68,0,0,0,25.93-11.44l-16.85-.51C330,797.11,319.45,794.58,309.07,795.22Z" transform="translate(-13.03 -12.64)"/></g></svg>